<?xml version="1.0" encoding="UTF-8" ?>
<!DOCTYPE svg PUBLIC "-//W3C//DTD SVG 1.1//EN" "http://www.w3.org/Graphics/SVG/1.1/DTD/svg11.dtd">
<svg width="128pt" height="128pt" viewBox="0 0 128 128" version="1.1" xmlns="http://www.w3.org/2000/svg">
<path fill="#ffffff" d=" M 0.00 0.00 L 61.63 0.00 C 57.52 1.06 53.24 1.24 49.14 2.37 C 39.77 4.80 31.07 9.50 23.48 15.46 C 23.48 15.98 23.48 17.01 23.48 17.53 C 24.98 18.86 26.44 20.23 27.89 21.60 C 25.94 23.19 24.12 24.94 22.49 26.86 C 21.38 25.47 20.33 24.03 19.36 22.54 C 18.38 22.50 17.40 22.45 16.43 22.41 C 9.44 29.84 4.70 39.25 2.20 49.10 C 1.07 53.19 0.94 57.47 0.00 61.60 L 0.00 0.00 Z" />
<path fill="#f0bc5c" d=" M 61.63 0.00 L 67.30 0.00 C 71.43 1.06 75.74 1.22 79.85 2.39 C 89.27 4.89 98.15 9.55 105.60 15.82 C 106.31 18.89 102.57 20.66 100.05 20.82 C 90.14 12.96 77.71 8.03 64.97 8.14 C 51.48 7.81 38.19 13.01 27.89 21.60 C 26.44 20.23 24.98 18.86 23.48 17.53 C 23.48 17.01 23.48 15.98 23.48 15.46 C 31.07 9.50 39.77 4.80 49.14 2.37 C 53.24 1.24 57.52 1.06 61.63 0.00 Z" />
<path fill="#ffffff" d=" M 67.30 0.00 L 128.00 0.00 L 128.00 56.43 C 126.63 44.64 121.61 33.44 114.21 24.22 C 112.80 24.25 111.40 24.30 110.00 24.38 C 109.62 24.75 108.86 25.50 108.48 25.87 C 108.44 26.67 108.34 28.26 108.30 29.06 C 105.94 25.97 103.10 23.22 100.05 20.82 C 102.57 20.66 106.31 18.89 105.60 15.82 C 98.15 9.55 89.27 4.89 79.85 2.39 C 75.74 1.22 71.43 1.06 67.30 0.00 Z" />
<path fill="#444444" d=" M 27.89 21.60 C 38.19 13.01 51.48 7.81 64.97 8.14 C 77.71 8.03 90.14 12.96 100.05 20.82 C 103.10 23.22 105.94 25.97 108.30 29.06 C 116.31 39.20 121.09 52.01 120.76 65.00 C 120.83 78.62 115.34 91.99 106.29 102.10 C 105.01 103.61 103.60 105.01 102.08 106.29 C 91.69 115.48 77.96 121.05 64.01 120.76 C 50.76 120.82 37.79 115.60 27.71 107.11 C 26.14 105.86 24.69 104.47 23.35 102.98 C 13.89 92.76 8.00 79.07 8.14 65.05 C 7.72 51.07 13.24 37.25 22.49 26.86 C 24.12 24.94 25.94 23.19 27.89 21.60 Z" />
<path fill="#f0bc5c" d=" M 61.72 12.86 C 64.40 12.83 67.09 12.83 69.77 12.86 C 69.80 15.66 69.77 18.47 69.78 21.27 C 80.89 22.54 91.55 28.09 98.69 36.73 C 91.66 43.01 85.25 49.95 78.29 56.29 C 73.57 48.26 61.74 46.44 54.84 52.72 C 52.72 50.70 50.66 48.61 48.75 46.39 C 56.70 38.81 69.69 38.22 78.76 44.15 C 81.01 41.91 83.31 39.73 85.47 37.41 C 78.23 32.07 68.90 29.43 59.97 30.96 C 53.43 31.93 47.37 35.03 42.38 39.30 C 39.87 37.43 37.51 35.39 35.33 33.15 C 42.26 26.17 51.86 22.07 61.62 21.34 C 61.81 18.51 61.63 15.68 61.72 12.86 Z" />
<path fill="#f0bc5c" d=" M 16.43 22.41 C 17.40 22.45 18.38 22.50 19.36 22.54 C 20.33 24.03 21.38 25.47 22.49 26.86 C 13.24 37.25 7.72 51.07 8.14 65.05 C 8.00 79.07 13.89 92.76 23.35 102.98 C 21.83 104.28 20.66 105.93 19.47 107.53 C 18.95 107.53 17.92 107.53 17.40 107.53 C 9.92 99.94 4.84 90.12 2.21 79.83 C 1.10 75.82 1.02 71.63 0.00 67.60 L 0.00 61.60 C 0.94 57.47 1.07 53.19 2.20 49.10 C 4.70 39.25 9.44 29.84 16.43 22.41 Z" />
<path fill="#f0bc5c" d=" M 110.00 24.38 C 111.40 24.30 112.80 24.25 114.21 24.22 C 121.61 33.44 126.63 44.64 128.00 56.43 L 128.00 71.71 C 126.82 84.62 121.02 96.90 112.51 106.60 C 111.49 106.57 110.46 106.55 109.44 106.52 C 108.41 105.03 107.36 103.55 106.29 102.10 C 115.34 91.99 120.83 78.62 120.76 65.00 C 121.09 52.01 116.31 39.20 108.30 29.06 C 108.34 28.26 108.44 26.67 108.48 25.87 C 108.86 25.50 109.62 24.75 110.00 24.38 Z" />
<path fill="#444444" d=" M 42.38 39.30 C 47.37 35.03 53.43 31.93 59.97 30.96 C 68.90 29.43 78.23 32.07 85.47 37.41 C 83.31 39.73 81.01 41.91 78.76 44.15 C 69.69 38.22 56.70 38.81 48.75 46.39 C 48.01 47.11 47.29 47.85 46.59 48.60 C 38.53 57.41 38.77 72.27 47.08 80.84 C 47.76 81.55 48.47 82.24 49.20 82.90 C 57.03 89.92 69.39 90.61 78.20 85.01 C 80.51 87.25 82.78 89.53 85.03 91.82 C 77.80 96.90 68.65 99.47 59.86 97.90 C 53.59 96.94 47.75 94.04 42.88 90.02 C 41.96 89.20 41.07 88.34 40.22 87.44 C 34.73 81.31 31.30 73.27 31.25 64.99 C 31.04 56.54 34.30 48.20 39.85 41.87 C 40.66 40.98 41.50 40.12 42.38 39.30 Z" />
<path fill="#ffffff" d=" M 33.35 35.16 C 34.02 34.50 34.68 33.83 35.33 33.15 C 37.51 35.39 39.87 37.43 42.38 39.30 C 41.50 40.12 40.66 40.98 39.85 41.87 C 37.69 39.64 35.53 37.39 33.35 35.16 Z" />
<path fill="#f0bc5c" d=" M 33.83 94.16 C 18.65 78.48 18.55 51.14 33.35 35.16 C 35.53 37.39 37.69 39.64 39.85 41.87 C 34.30 48.20 31.04 56.54 31.25 64.99 C 31.30 73.27 34.73 81.31 40.22 87.44 C 38.26 89.84 36.06 92.02 33.83 94.16 Z" />
<path fill="#ffffff" d=" M 46.59 48.60 C 47.29 47.85 48.01 47.11 48.75 46.39 C 50.66 48.61 52.72 50.70 54.84 52.72 C 54.19 53.41 53.54 54.09 52.88 54.77 C 50.84 52.65 48.73 50.61 46.59 48.60 Z" />
<path fill="#f0bc5c" d=" M 47.08 80.84 C 38.77 72.27 38.53 57.41 46.59 48.60 C 48.73 50.61 50.84 52.65 52.88 54.77 C 48.40 60.54 48.62 69.13 53.36 74.69 C 51.31 76.79 49.22 78.85 47.08 80.84 Z" />
<path fill="#ffffff" d=" M 0.00 67.60 C 1.02 71.63 1.10 75.82 2.21 79.83 C 4.84 90.12 9.92 99.94 17.40 107.53 C 17.92 107.53 18.95 107.53 19.47 107.53 C 20.66 105.93 21.83 104.28 23.35 102.98 C 24.69 104.47 26.14 105.86 27.71 107.11 C 25.57 108.42 23.73 110.14 22.11 112.04 C 31.17 120.37 42.87 125.32 54.77 128.00 L 0.00 128.00 L 0.00 67.60 Z" />
<path fill="#ffffff" d=" M 112.51 106.60 C 121.02 96.90 126.82 84.62 128.00 71.71 L 128.00 128.00 L 72.77 128.00 C 85.24 126.14 96.88 120.44 106.55 112.46 C 106.55 111.96 106.53 110.96 106.52 110.46 C 105.02 109.09 103.55 107.69 102.08 106.29 C 103.60 105.01 105.01 103.61 106.29 102.10 C 107.36 103.55 108.41 105.03 109.44 106.52 C 110.46 106.55 111.49 106.57 112.51 106.60 Z" />
<path fill="#f0bc5c" d=" M 55.42 76.64 C 62.29 82.20 73.33 80.45 78.09 72.98 C 84.65 79.76 91.77 86.03 98.20 92.92 C 90.87 101.02 80.67 106.48 69.76 107.63 C 69.77 110.36 69.80 113.10 69.80 115.84 C 67.11 115.83 64.41 115.82 61.71 115.86 C 61.67 113.10 61.74 110.35 61.69 107.59 C 52.17 106.81 42.79 102.96 35.89 96.28 C 38.01 93.96 40.29 91.80 42.88 90.02 C 47.75 94.04 53.59 96.94 59.86 97.90 C 68.65 99.47 77.80 96.90 85.03 91.82 C 82.78 89.53 80.51 87.25 78.20 85.01 C 69.39 90.61 57.03 89.92 49.20 82.90 C 51.22 80.76 53.28 78.66 55.42 76.64 Z" />
<path fill="#ffffff" d=" M 47.08 80.84 C 49.22 78.85 51.31 76.79 53.36 74.69 C 54.05 75.34 54.73 75.99 55.42 76.64 C 53.28 78.66 51.22 80.76 49.20 82.90 C 48.47 82.24 47.76 81.55 47.08 80.84 Z" />
<path fill="#ffffff" d=" M 33.83 94.16 C 36.06 92.02 38.26 89.84 40.22 87.44 C 41.07 88.34 41.96 89.20 42.88 90.02 C 40.29 91.80 38.01 93.96 35.89 96.28 C 35.23 95.54 34.55 94.84 33.83 94.16 Z" />
<path fill="#f0bc5c" d=" M 64.01 120.76 C 77.96 121.05 91.69 115.48 102.08 106.29 C 103.55 107.69 105.02 109.09 106.52 110.46 C 106.53 110.96 106.55 111.96 106.55 112.46 C 96.88 120.44 85.24 126.14 72.77 128.00 L 54.77 128.00 C 42.87 125.32 31.17 120.37 22.11 112.04 C 23.73 110.14 25.57 108.42 27.71 107.11 C 37.79 115.60 50.76 120.82 64.01 120.76 Z" />
</svg>
